<?xml version="1.0" encoding="UTF-8" standalone="no"?>
<!-- Generator: Adobe Illustrator 26.5.0, SVG Export Plug-In . SVG Version: 6.00 Build 0)  -->

<svg
   version="1.1"
   id="Layer_1"
   x="0px"
   y="0px"
   viewBox="0 0 2521 2911"
   style="enable-background:new 0 0 2521 2911;"
   xml:space="preserve"
   sodipodi:docname="logo.svg"
   inkscape:version="1.1.2 (0a00cf5339, 2022-02-04)"
   xmlns:inkscape="http://www.inkscape.org/namespaces/inkscape"
   xmlns:sodipodi="http://sodipodi.sourceforge.net/DTD/sodipodi-0.dtd"
   xmlns="http://www.w3.org/2000/svg"
   xmlns:svg="http://www.w3.org/2000/svg"><defs
   id="defs85"><marker
     style="overflow:visible"
     id="TriangleOutM"
     refX="0.0"
     refY="0.0"
     orient="auto"
     inkscape:stockid="TriangleOutM"
     inkscape:isstock="true"><path
       transform="scale(0.4)"
       style="fill-rule:evenodd;fill:context-stroke;stroke:context-stroke;stroke-width:1.0pt"
       d="M 5.77,0.0 L -2.88,5.0 L -2.88,-5.0 L 5.77,0.0 z "
       id="path33843" /></marker></defs><sodipodi:namedview
   id="namedview83"
   pagecolor="#ffffff"
   bordercolor="#000000"
   borderopacity="0.25"
   inkscape:pageshadow="2"
   inkscape:pageopacity="0.0"
   inkscape:pagecheckerboard="0"
   showgrid="false"
   inkscape:zoom="0.24699416"
   inkscape:cx="1408.9402"
   inkscape:cy="1599.2281"
   inkscape:window-width="1920"
   inkscape:window-height="1043"
   inkscape:window-x="0"
   inkscape:window-y="0"
   inkscape:window-maximized="1"
   inkscape:current-layer="g80"
   showguides="true"
   inkscape:guide-bbox="true"><sodipodi:guide
     position="2014.2177,1560.7656"
     orientation="0,-1"
     id="guide34046" /></sodipodi:namedview>
<style
   type="text/css"
   id="style2">
	.st0{fill:#164F86;}
	.st1{fill:#14275B;}
	.st2{fill:#E6B35A;}
	.st3{fill:#FFFFFF;}
	.st4{fill:#BA3224;}
	.st5{fill:#B13728;}
	.st6{fill:#AA3729;}
	.st7{fill:#221819;}
	.st8{opacity:0.1;fill:#1A171B;enable-background:new    ;}
	.st9{opacity:0.94;}
</style>
<g
   id="g80"><polygon
   class="st0"
   points="1260.5,76.8 67.6,765.4 67.6,2142.9 1260.5,2831.4 2453.1,2142.9 2453.1,765.4 1260.5,76.8 "
   id="polygon4"
   transform="translate(0,42.6)" />
	
	<path
   class="st1"
   d="M2521,2183.3V727.7l-100.5-58l-953.1-550.3L1260.5,0l-206.9,119.4L100.5,669.7L0,727.7v1455.7l100.5,58   l965.1,557.2l195.2,112.5l195.2-112.5l965.1-557.2L2521,2183.3z M100.5,2128.8V789.1l1160-669.7l0,0l1160,669.7v1339.4l-1160,670   L100.5,2128.8z"
   id="path6" />
	
	
	
	
	
	
	
	
	
	
	
	
	
	
	
	
	
	
	
	
	
	
	
	
	
	
	
	
	
	
	
<g
   id="g34345"
   transform="translate(3.614764e-7,-62.165787)"><g
     class="st9"
     id="g78"
     transform="translate(8.5449218e-6,514.65492)">
		
		
		
		
		
	<g
   aria-label="readpdf"
   id="text2359"
   style="font-size:240px;font-family:'Fira Mono';-inkscape-font-specification:'Fira Mono';fill:#ffffff;stroke:#000000;stroke-linecap:round;stroke-linejoin:round"><path
     d="m 880.55057,1386.06 q 3.6,0 7.68,0.48 4.32,0.24 7.44,0.96 l -2.64,19.44 q -3.12,-0.72 -6.96,-1.2 -3.6,-0.48 -6.96,-0.48 -9.84,0 -18.48,5.52 -8.64,5.28 -13.92,15.12 -5.04,9.6 -5.04,22.56 v 68.64 h -21.12 v -128.64 h 17.28 l 2.4,23.52 h 0.96 q 6.24,-10.56 16.08,-18.24 9.84,-7.68 23.28,-7.68 z"
     style="font-family:'Noto Sans';-inkscape-font-specification:'Noto Sans';stroke:none"
     id="path851" /><path
     d="m 964.55003,1386.06 q 16.56,0 28.32,7.2 11.99997,7.2 18.23997,20.4 6.48,12.96 6.48,30.48 v 12.72 h -88.07997 q 0.48,21.84 11.04,33.36 10.8,11.28 30,11.28 12.24,0 21.6,-2.16 9.59997,-2.4 19.67997,-6.72 v 18.48 q -9.84,4.32 -19.43997,6.24 -9.6,2.16 -22.8,2.16 -18.24,0 -32.4,-7.44 -13.92,-7.44 -21.84,-22.08 -7.68,-14.88 -7.68,-36.24 0,-21.12 6.96,-36.24 7.2,-15.12 19.92,-23.28 12.96,-8.16 30,-8.16 z m -0.24,17.28 q -15.12,0 -24,9.84 -8.64,9.6 -10.32,26.88 h 65.52 q -0.24,-16.32 -7.68,-26.4 -7.44,-10.32 -23.52,-10.32 z"
     style="font-family:'Noto Sans';-inkscape-font-specification:'Noto Sans';stroke:none"
     id="path853" /><path
     d="m 1098.9498,1386.3 q 23.52,0 34.8,10.32 11.28,10.32 11.28,32.88 v 87.6 h -15.36 l -4.08,-18.24 h -0.96 q -8.4,10.56 -17.76,15.6 -9.12,5.04 -25.44,5.04 -17.52,0 -29.04,-9.12 -11.52,-9.36 -11.52,-29.04 0,-19.2 15.12,-29.52 15.12,-10.56 46.56,-11.52 l 21.84,-0.72 v -7.68 q 0,-16.08 -6.96,-22.32 -6.96,-6.24 -19.68,-6.24 -10.08,0 -19.2,3.12 -9.12,2.88 -17.04,6.72 l -6.48,-15.84 q 8.4,-4.56 19.92,-7.68 11.52,-3.36 24,-3.36 z m 6.24,68.64 q -24,0.96 -33.36,7.68 -9.12,6.72 -9.12,18.96 0,10.8 6.48,15.84 6.72,5.04 17.04,5.04 16.32,0 27.12,-8.88 10.8,-9.12 10.8,-27.84 v -11.52 z"
     style="font-family:'Noto Sans';-inkscape-font-specification:'Noto Sans';stroke:none"
     id="path855" /><path
     d="m 1230.4696,1519.5 q -24,0 -38.4,-16.56 -14.4,-16.8 -14.4,-49.92 0,-33.12 14.4,-49.92 14.64,-17.04 38.64,-17.04 14.88,0 24.24,5.52 9.6,5.52 15.6,13.44 h 1.44 q -0.24,-3.12 -0.96,-9.12 -0.48,-6.24 -0.48,-9.84 v -51.36 h 21.12 v 182.4 h -17.04 l -3.12,-17.28 h -0.96 q -5.76,8.16 -15.36,13.92 -9.6,5.76 -24.72,5.76 z m 3.36,-17.52 q 20.4,0 28.56,-11.04 8.4,-11.28 8.4,-33.84 v -3.84 q 0,-24 -7.92,-36.72 -7.92,-12.96 -29.28,-12.96 -17.04,0 -25.68,13.68 -8.4,13.44 -8.4,36.24 0,23.04 8.4,35.76 8.64,12.72 25.92,12.72 z"
     style="font-family:'Noto Sans';-inkscape-font-specification:'Noto Sans';stroke:none"
     id="path857" /><path
     d="m 1393.6695,1386.06 q 23.76,0 38.16,16.56 14.64,16.56 14.64,49.92 0,32.88 -14.64,49.92 -14.4,17.04 -38.4,17.04 -14.88,0 -24.72,-5.52 -9.6,-5.76 -15.12,-13.2 h -1.44 q 0.48,4.08 0.96,10.32 0.48,6.24 0.48,10.8 v 52.8 h -21.12 v -186.24 h 17.28 l 2.88,17.52 h 0.96 q 5.76,-8.4 15.12,-14.16 9.36,-5.76 24.96,-5.76 z m -3.84,17.76 q -19.68,0 -27.84,11.04 -7.92,11.04 -8.4,33.6 v 4.08 q 0,23.76 7.68,36.72 7.92,12.72 29.04,12.72 11.76,0 19.2,-6.48 7.68,-6.48 11.28,-17.52 3.84,-11.28 3.84,-25.68 0,-22.08 -8.64,-35.28 -8.4,-13.2 -26.16,-13.2 z"
     style="font-family:'Noto Sans';-inkscape-font-specification:'Noto Sans';stroke:none"
     id="path859" /><path
     d="m 1525.6695,1519.5 q -24,0 -38.4,-16.56 -14.4,-16.8 -14.4,-49.92 0,-33.12 14.4,-49.92 14.64,-17.04 38.64,-17.04 14.88,0 24.24,5.52 9.6,5.52 15.6,13.44 h 1.44 q -0.24,-3.12 -0.96,-9.12 -0.48,-6.24 -0.48,-9.84 v -51.36 h 21.12 v 182.4 h -17.04 l -3.12,-17.28 h -0.96 q -5.76,8.16 -15.36,13.92 -9.6,5.76 -24.72,5.76 z m 3.36,-17.52 q 20.4,0 28.56,-11.04 8.4,-11.28 8.4,-33.84 v -3.84 q 0,-24 -7.92,-36.72 -7.92,-12.96 -29.28,-12.96 -17.04,0 -25.68,13.68 -8.4,13.44 -8.4,36.24 0,23.04 8.4,35.76 8.64,12.72 25.92,12.72 z"
     style="font-family:'Noto Sans';-inkscape-font-specification:'Noto Sans';stroke:none"
     id="path861" /><path
     d="m 1686.9494,1404.78 h -32.4 v 112.32 h -21.12 v -112.32 h -22.56 v -9.84 l 22.56,-7.2 v -7.44 q 0,-24.96 11.04,-35.76 11.04,-11.04 30.72,-11.04 7.68,0 13.92,1.44 6.48,1.2 11.04,2.88 l -5.52,16.56 q -3.84,-1.2 -8.88,-2.4 -5.04,-1.2 -10.32,-1.2 -10.56,0 -15.84,7.2 -5.04,6.96 -5.04,22.08 v 8.4 h 32.4 z"
     style="font-family:'Noto Sans';-inkscape-font-specification:'Noto Sans';stroke:none"
     id="path863" /></g></g><g
     id="g33408"
     transform="translate(-37.17195)"><g
       id="g33154"
       transform="translate(458.41525,-914.54044)"><path
         class="st3"
         d="m 1022.6075,2264.9704 c 0,-94.7 0,-189.4 0,-284.1 -0.3,-9.9 3.1,-19.9 9.9,-27.4 5.1,-5.1 11.7,-8.9 18.9,-9.9 6.9,-1 13.7,-1.4 20.9,-1 h 249.1 c 6.9,0 6.9,0 6.9,6.9 0,41.9 0.3,83.4 -0.3,125.2 0.3,25 20.6,45.6 45.6,45.6 h 104.3 c 5.5,0 10.6,0 16.1,0 3.1,0 4.5,1 4.1,4.1 0,1.7 0,3.1 0,4.8 0,139.6 0,278.9 0,418.6 0.3,6.5 -1,13 -3.4,19.2 -5.8,13.4 -16.5,19.6 -30.5,20.6 -1,0 -2.4,0 -3.4,0 h -400.7 c -6.9,0.3 -13.4,-1.4 -19.6,-4.5 -11.7,-6.5 -16.8,-17.2 -17.8,-29.8 0,-2.1 0,-4.1 0,-6.2 z"
         id="path32788" /><g
         id="g32706"
         transform="matrix(0.12515395,0,0,0.12515395,1022.7075,1952.5315)"><g
           id="g32688" /><g
           id="g32692"><path
             fill="#555555"
             d="M 900,1976 H 2900 V 1764 H 900 m 0,670 H 2900 V 2223 H 900 m 0,670 H 2900 V 2681 H 900 m 0,635 H 2100 V 3140 H 900"
             id="path32690" /></g></g><path
         class="st3"
         d="m 1352.6075,1943.7704 c 48,50.4 96.8,100.2 144.1,151.6 -0.7,2.4 -2.7,1.4 -4.1,1.4 -38.8,0 -77.5,0 -116,0 -3.4,0 -6.9,-0.3 -10.3,-1.4 -9.3,-2.4 -15.8,-11 -15.4,-20.9 0,-39.8 0,-79.3 0,-118.7 0,-2.7 0,-5.5 0,-8.2 -0.3,-1.7 0.4,-3.1 1.7,-3.8 z"
         id="path33032" /></g><g
       transform="matrix(5.6099528,0,0,5.6099528,2550.6834,946.34959)"
       id="g32589"><g
         id="g33142"><path
           class="st3"
           d="m 1022.4,894.1 c 0,-94.7 0,-189.4 0,-284.1 -0.3,-9.9 3.1,-19.9 9.9,-27.4 5.1,-5.1 11.7,-8.9 18.9,-9.9 6.9,-1 13.7,-1.4 20.9,-1 h 249.1 c 6.9,0 6.9,0 6.9,6.9 0,41.9 0.3,83.4 -0.3,125.2 0.3,25 20.6,45.6 45.6,45.6 h 104.3 c 5.5,0 10.6,0 16.1,0 3.1,0 4.5,1 4.1,4.1 0,1.7 0,3.1 0,4.8 0,139.6 0,278.9 0,418.6 0.3,6.5 -1,13 -3.4,19.2 -5.8,13.4 -16.5,19.6 -30.5,20.6 -1,0 -2.4,0 -3.4,0 h -400.7 c -6.9,0.3 -13.4,-1.4 -19.6,-4.5 -11.7,-6.5 -16.8,-17.2 -17.8,-29.8 0,-2.1 0,-4.1 0,-6.2 z"
           id="path10"
           transform="matrix(0.17825462,0,0,0.17825462,-523.10793,-87.348255)" /><path
           class="st3"
           d="m 1352.4,572.9 c 48,50.4 96.8,100.2 144.1,151.6 -0.7,2.4 -2.7,1.4 -4.1,1.4 -38.8,0 -77.5,0 -116,0 -3.4,0 -6.9,-0.3 -10.3,-1.4 -9.3,-2.4 -15.8,-11 -15.4,-20.9 0,-39.8 0,-79.3 0,-118.7 0,-2.7 0,-5.5 0,-8.2 -0.3,-1.7 0.4,-3.1 1.7,-3.8 z"
           id="path12"
           transform="matrix(0.17825462,0,0,0.17825462,-523.10793,-87.348255)" /><path
           fill="#ff2116"
           d="m -321.01,93.869591 c -2.58468,-2.584674 0.21175,-6.136385 7.80088,-9.907903 l 4.7752,-2.373066 1.86031,-4.070335 c 1.02318,-2.238677 2.55025,-5.891473 3.39351,-8.117285 l 1.53322,-4.046968 -1.05656,-2.994974 c -1.29912,-3.682605 -1.76239,-9.216636 -0.93813,-11.206566 1.11647,-2.695394 4.77351,-2.418844 6.22132,0.470468 1.13074,2.256544 1.01514,6.343079 -0.32522,11.496814 l -1.09885,4.225165 0.96791,1.643117 c 0.53235,0.90371 2.08734,3.049518 3.45554,4.768435 l 2.57145,3.198651 3.19981,-0.417557 c 10.16525,-1.326467 13.64695,0.927984 13.64695,4.160419 0,4.079598 -7.98189,4.416334 -14.68466,-0.291401 -1.50813,-1.05925 -2.54381,-2.111491 -2.54381,-2.111491 0,0 -4.19905,0.854845 -6.26647,1.412079 -2.13402,0.57519 -3.19868,0.935418 -6.32467,1.990569 0,0 -1.0968,1.592779 -1.81151,2.7507 -2.659,4.307939 -5.76366,7.878068 -7.98089,9.177458 -2.48249,1.454841 -5.08499,1.554009 -6.39533,0.243671 z m 4.05625,-1.449074 c 1.45288,-0.897944 4.39356,-4.375984 6.42918,-7.604019 l 0.82417,-1.306949 -3.75269,1.886823 c -5.796,2.914171 -8.44755,5.660754 -7.06875,7.322094 0.77455,0.933271 1.70113,0.855892 3.56809,-0.297949 z m 37.64826,-10.567623 c 1.42106,-0.995356 1.21477,-3.001167 -0.39181,-3.809879 -1.25031,-0.629379 -2.25805,-0.758694 -5.50608,-0.710751 -1.99597,0.136093 -5.20551,0.538337 -5.74948,0.660714 0,0 1.76319,1.218586 2.546,1.666503 1.04209,0.595187 3.57446,1.70002 5.42333,2.265948 1.82376,0.558227 2.8787,0.499372 3.67804,-0.07257 z m -15.13788,-6.29173 c -0.86003,-0.904066 -2.32243,-2.790978 -3.24975,-4.193138 -1.21282,-1.590579 -1.821,-2.712747 -1.821,-2.712747 0,0 -0.88646,2.85127 -1.61373,4.567064 l -2.26897,5.608287 -0.65784,1.272118 c 0,0 3.49731,-1.146707 5.27672,-1.611498 1.88466,-0.492275 5.70962,-1.244421 5.70962,-1.244421 z m -4.87836,-19.563477 c 0.21937,-1.840886 0.31247,-3.679039 -0.27899,-4.605976 -1.64057,-1.793457 -3.62069,-0.29786 -3.28528,3.965969 0.11285,1.434382 0.46919,3.886406 0.94559,5.397724 l 0.86618,2.747808 0.60963,-2.069563 c 0.3353,-1.138262 0.84959,-3.584448 1.14287,-5.435962 z"
           id="path32585"
           style="stroke-width:1.77435" /></g></g></g><path
     style="fill:none;stroke:#ffffff;stroke-width:10;stroke-linecap:round;stroke-linejoin:round;stroke-miterlimit:4;stroke-dasharray:none;marker-end:url(#TriangleOutM)"
     d="m 1152.8557,1350.2344 h 191.5801"
     id="path34081" /></g></g>
</svg>
